# xmcd
#
# Track frame offsets: 
#        150
#        12915
#        26355
#        38952
#        51177
#        63110
#        76072
#        88830
#        103680
#        119277
#
# Disc length: 1733 seconds
#
# Revision: 3
# Processed by: cddbd v1.5.2PL0 Copyright (c) Steve Scherf et al.
# Submitted via: ExactAudioCopy v0.99pb5
#
DISCID=7206c30a
DTITLE=Mickey Gilley - Gilley's Greatest Hits. Vol.1 (PLAYBOY)
DYEAR=1976
DGENRE=Country
TTITLE0=Room Full Of Roses
TTITLE1=More And More
TTITLE2=City Lights
TTITLE3=I'll Sail My Ship Alone
TTITLE4=Window Up Above
TTITLE5=I Overlooked An Orchid
TTITLE6=Fraulein
TTITLE7=Faded Love
TTITLE8=How I Love Them Old Songs
TTITLE9=Bouquet Of Roses
EXTD=YEAR: 1976
EXTT0=
EXTT1=
EXTT2=
EXTT3=
EXTT4=
EXTT5=
EXTT6=
EXTT7=
EXTT8=
EXTT9=
PLAYORDER=
